# xmcd CD database file
# Copyright (C) 1996 Ti Kan
#
# Track frame offsets:
#	150
#	8084
#	23979
#	37800
#	54927
#	63275
#	82230
#	94855
#	108425
#	125445
#	141157
#	154590
#	169771
# Disc length: 2441 seconds
#
# Revision: 1
# Processed by: cddbd v1.4PL0 Copyright (c) Steve Scherf et al.
# Submitted via: CDCOPY 4.900
#
DISCID=9f09870d
DTITLE=Cracktorch - ...is not the Problem
DYEAR=1900
DGENRE=
TTITLE0=Pulling Plays
TTITLE1=Roll
TTITLE2=Get it Tight
TTITLE3=Cockfight
TTITLE4=Are You Gonna Waste Your Life Away
TTITLE5=Are You Ready
TTITLE6=Kiss Off
TTITLE7=Baseball Tavern
TTITLE8=Eightball
TTITLE9=Spider and the Fly
TTITLE10=Helicopter vs Blimp II
TTITLE11=What Would You
TTITLE12=We Don't Need
EXTD=
EXTT0=
EXTT1=
EXTT2=
EXTT3=
EXTT4=
EXTT5=
EXTT6=
EXTT7=
EXTT8=
EXTT9=
EXTT10=
EXTT11=
EXTT12=
PLAYORDER=
